<?xml version="1.0" encoding="UTF-8"?>
<svg version="1.1" xmlns="http://www.w3.org/2000/svg" width="889" height="1500">
<path d="M0 0 C0.66 0 1.32 0 2 0 C2 247.5 2 495 2 750 C71.63 750 141.26 750 213 750 C211.33963587 753.32072825 210.23650172 755.0346024 207.76953125 757.609375 C207.13080078 758.28226563 206.49207031 758.95515625 205.83398438 759.6484375 C205.16689453 760.34195313 204.49980469 761.03546875 203.8125 761.75 C199.32221751 766.4502758 194.91709958 771.1903374 190.65893555 776.10253906 C188.16407145 778.9561202 185.58420029 781.72751553 183 784.5 C179.21011662 788.58469759 175.47824608 792.7039735 171.83203125 796.91796875 C169.00135739 800.13491793 166.09232984 803.2797068 163.19165039 806.43334961 C158.75763961 811.25602903 154.37383922 816.12269727 150 821 C145.15478859 826.40293359 140.28787784 831.78360539 135.375 837.125 C132.37819989 840.38390494 129.40085453 843.65499549 126.5 847 C123.13677362 850.87817013 119.66664329 854.65527811 116.19189453 858.43310547 C111.75776372 863.25584891 107.3748176 868.1234112 103 873 C100.74797293 875.50312417 98.49507877 878.00546614 96.2421875 880.5078125 C94.76707382 882.14739879 93.29308348 883.78799655 91.8203125 885.4296875 C87.69902273 890.02030564 83.55129287 894.58449968 79.375 899.125 C76.39781719 902.36217216 73.44047144 905.61137729 70.5625 908.9375 C66.93855356 913.12032011 63.16744254 917.16271807 59.40478516 921.22021484 C56.15135213 924.73482029 52.96591238 928.29608667 49.83203125 931.91796875 C47.00135739 935.13491793 44.09232984 938.2797068 41.19165039 941.43334961 C36.75763061 946.25603882 32.37474091 951.12349669 28 956 C25.74797293 958.50312417 23.49507877 961.00546614 21.2421875 963.5078125 C19.76707382 965.14739879 18.29308348 966.78799655 16.8203125 968.4296875 C12.69902232 973.0203061 8.55126212 977.58447107 4.375 982.125 C1.37819989 985.38390494 -1.59914547 988.65499549 -4.5 992 C-7.86322638 995.87817013 -11.33335671 999.65527811 -14.80810547 1003.43310547 C-19.24222727 1008.25583911 -23.62608411 1013.12261178 -28 1018 C-32.84521141 1023.40293359 -37.71212216 1028.78360539 -42.625 1034.125 C-45.62180011 1037.38390494 -48.59914547 1040.65499549 -51.5 1044 C-54.86322638 1047.87817013 -58.33335671 1051.65527811 -61.80810547 1055.43310547 C-66.24223628 1060.25584891 -70.6251824 1065.1234112 -75 1070 C-77.25202707 1072.50312417 -79.50492123 1075.00546614 -81.7578125 1077.5078125 C-83.23292618 1079.14739879 -84.70691652 1080.78799655 -86.1796875 1082.4296875 C-90.30097727 1087.02030564 -94.44870713 1091.58449968 -98.625 1096.125 C-101.60218281 1099.36217216 -104.55952856 1102.61137729 -107.4375 1105.9375 C-111.06144644 1110.12032011 -114.83255746 1114.16271807 -118.59521484 1118.22021484 C-121.84864787 1121.73482029 -125.03408762 1125.29608667 -128.16796875 1128.91796875 C-130.99864261 1132.13491793 -133.90767016 1135.2797068 -136.80834961 1138.43334961 C-141.24236939 1143.25603882 -145.62525909 1148.12349669 -150 1153 C-152.25202707 1155.50312417 -154.50492123 1158.00546614 -156.7578125 1160.5078125 C-158.23292618 1162.14739879 -159.70691652 1163.78799655 -161.1796875 1165.4296875 C-165.30097768 1170.0203061 -169.44873788 1174.58447107 -173.625 1179.125 C-176.62180011 1182.38390494 -179.59914547 1185.65499549 -182.5 1189 C-185.86322638 1192.87817013 -189.33335671 1196.65527811 -192.80810547 1200.43310547 C-197.24222727 1205.25583911 -201.62608411 1210.12261178 -206 1215 C-210.84521141 1220.40293359 -215.71212216 1225.78360539 -220.625 1231.125 C-223.62180011 1234.38390494 -226.59914547 1237.65499549 -229.5 1241 C-232.86322638 1244.87817013 -236.33335671 1248.65527811 -239.80810547 1252.43310547 C-244.24223628 1257.25584891 -248.6251824 1262.1234112 -253 1267 C-255.25202707 1269.50312417 -257.50492123 1272.00546614 -259.7578125 1274.5078125 C-261.23292618 1276.14739879 -262.70691652 1277.78799655 -264.1796875 1279.4296875 C-268.30097727 1284.02030564 -272.44870713 1288.58449968 -276.625 1293.125 C-279.60218281 1296.36217216 -282.55952856 1299.61137729 -285.4375 1302.9375 C-289.06144644 1307.12032011 -292.83255746 1311.16271807 -296.59521484 1315.22021484 C-299.84864787 1318.73482029 -303.03408762 1322.29608667 -306.16796875 1325.91796875 C-308.99864261 1329.13491793 -311.90767016 1332.2797068 -314.80834961 1335.43334961 C-319.24236939 1340.25603882 -323.62525909 1345.12349669 -328 1350 C-330.25202707 1352.50312417 -332.50492123 1355.00546614 -334.7578125 1357.5078125 C-336.23292618 1359.14739879 -337.70691652 1360.78799655 -339.1796875 1362.4296875 C-343.30097768 1367.0203061 -347.44873788 1371.58447107 -351.625 1376.125 C-354.62180011 1379.38390494 -357.59914547 1382.65499549 -360.5 1386 C-363.86322638 1389.87817013 -367.33335671 1393.65527811 -370.80810547 1397.43310547 C-375.24222727 1402.25583911 -379.62608411 1407.12261178 -384 1412 C-388.84521141 1417.40293359 -393.71212216 1422.78360539 -398.625 1428.125 C-401.62180011 1431.38390494 -404.59914547 1434.65499549 -407.5 1438 C-410.86322638 1441.87817013 -414.33335671 1445.65527811 -417.80810547 1449.43310547 C-422.24223628 1454.25584891 -426.6251824 1459.1234112 -431 1464 C-433.25202707 1466.50312417 -435.50492123 1469.00546614 -437.7578125 1471.5078125 C-439.23292618 1473.14739879 -440.70691652 1474.78799655 -442.1796875 1476.4296875 C-445.40436621 1480.0215894 -448.63321072 1483.60830979 -451.90625 1487.15625 C-452.39947754 1487.69137207 -452.89270508 1488.22649414 -453.40087891 1488.77783203 C-454.35981719 1489.81681418 -455.32034663 1490.85433077 -456.28271484 1491.89013672 C-458.21000983 1493.97821591 -460.03218382 1496.04464207 -461.6953125 1498.3515625 C-462.12585938 1498.89554688 -462.55640625 1499.43953125 -463 1500 C-463.66 1500 -464.32 1500 -465 1500 C-465 1252.83 -465 1005.66 -465 751 C-534.63 751 -604.26 751 -676 751 C-674.99681229 746.98724916 -674.69715834 746.35701623 -671.875 743.75 C-669.37433351 741.35563714 -667.00871371 738.93675434 -664.75 736.3125 C-661.77032891 732.85848666 -658.71402584 729.48109012 -655.625 726.125 C-650.71184234 720.7838465 -645.84620545 715.40204264 -641 710 C-638.74797293 707.49687583 -636.49507877 704.99453386 -634.2421875 702.4921875 C-632.76707382 700.85260121 -631.29308348 699.21200345 -629.8203125 697.5703125 C-625.69902232 692.9796939 -621.55126212 688.41552893 -617.375 683.875 C-614.37819989 680.61609506 -611.40085453 677.34500451 -608.5 674 C-605.13677362 670.12182987 -601.66664329 666.34472189 -598.19189453 662.56689453 C-593.75777273 657.74416089 -589.37391589 652.87738822 -585 648 C-580.15478859 642.59706641 -575.28787784 637.21639461 -570.375 631.875 C-567.37819989 628.61609506 -564.40085453 625.34500451 -561.5 622 C-558.13677362 618.12182987 -554.66664329 614.34472189 -551.19189453 610.56689453 C-546.75776372 605.74415109 -542.3748176 600.8765888 -538 596 C-535.74797293 593.49687583 -533.49507877 590.99453386 -531.2421875 588.4921875 C-529.76707382 586.85260121 -528.29308348 585.21200345 -526.8203125 583.5703125 C-522.69902232 578.9796939 -518.55126212 574.41552893 -514.375 569.875 C-511.37819989 566.61609506 -508.40085453 563.34500451 -505.5 560 C-502.13677362 556.12182987 -498.66664329 552.34472189 -495.19189453 548.56689453 C-490.75777273 543.74416089 -486.37391589 538.87738822 -482 534 C-477.15478859 528.59706641 -472.28787784 523.21639461 -467.375 517.875 C-464.37819989 514.61609506 -461.40085453 511.34500451 -458.5 508 C-455.13677362 504.12182987 -451.66664329 500.34472189 -448.19189453 496.56689453 C-443.75776372 491.74415109 -439.3748176 486.8765888 -435 482 C-432.74797293 479.49687583 -430.49507877 476.99453386 -428.2421875 474.4921875 C-426.76707382 472.85260121 -425.29308348 471.21200345 -423.8203125 469.5703125 C-419.69902273 464.97969436 -415.55129287 460.41550032 -411.375 455.875 C-408.39781719 452.63782784 -405.44047144 449.38862271 -402.5625 446.0625 C-398.93855356 441.87967989 -395.16744254 437.83728193 -391.40478516 433.77978516 C-388.15135213 430.26517971 -384.96591238 426.70391333 -381.83203125 423.08203125 C-379.00135739 419.86508207 -376.09232984 416.7202932 -373.19165039 413.56665039 C-368.75763061 408.74396118 -364.37474091 403.87650331 -360 399 C-357.74797293 396.49687583 -355.49507877 393.99453386 -353.2421875 391.4921875 C-351.76707382 389.85260121 -350.29308348 388.21200345 -348.8203125 386.5703125 C-344.69902232 381.9796939 -340.55126212 377.41552893 -336.375 372.875 C-333.37819989 369.61609506 -330.40085453 366.34500451 -327.5 363 C-324.13677362 359.12182987 -320.66664329 355.34472189 -317.19189453 351.56689453 C-312.75777273 346.74416089 -308.37391589 341.87738822 -304 337 C-299.15478859 331.59706641 -294.28787784 326.21639461 -289.375 320.875 C-286.37819989 317.61609506 -283.40085453 314.34500451 -280.5 311 C-277.13677362 307.12182987 -273.66664329 303.34472189 -270.19189453 299.56689453 C-265.75776372 294.74415109 -261.3748176 289.8765888 -257 285 C-254.74797293 282.49687583 -252.49507877 279.99453386 -250.2421875 277.4921875 C-248.76707382 275.85260121 -247.29308348 274.21200345 -245.8203125 272.5703125 C-241.69902232 267.9796939 -237.55126212 263.41552893 -233.375 258.875 C-230.37819989 255.61609506 -227.40085453 252.34500451 -224.5 249 C-221.13677362 245.12182987 -217.66664329 241.34472189 -214.19189453 237.56689453 C-209.75777273 232.74416089 -205.37391589 227.87738822 -201 223 C-196.15478859 217.59706641 -191.28787784 212.21639461 -186.375 206.875 C-183.37819989 203.61609506 -180.40085453 200.34500451 -177.5 197 C-174.13677362 193.12182987 -170.66664329 189.34472189 -167.19189453 185.56689453 C-162.75776372 180.74415109 -158.3748176 175.8765888 -154 171 C-151.74797293 168.49687583 -149.49507877 165.99453386 -147.2421875 163.4921875 C-145.76707382 161.85260121 -144.29308348 160.21200345 -142.8203125 158.5703125 C-138.69902273 153.97969436 -134.55129287 149.41550032 -130.375 144.875 C-127.39781719 141.63782784 -124.44047144 138.38862271 -121.5625 135.0625 C-117.93855356 130.87967989 -114.16744254 126.83728193 -110.40478516 122.77978516 C-107.15135213 119.26517971 -103.96591238 115.70391333 -100.83203125 112.08203125 C-98.00135739 108.86508207 -95.09232984 105.7202932 -92.19165039 102.56665039 C-87.75763061 97.74396118 -83.37474091 92.87650331 -79 88 C-76.74797293 85.49687583 -74.49507877 82.99453386 -72.2421875 80.4921875 C-70.76707382 78.85260121 -69.29308348 77.21200345 -67.8203125 75.5703125 C-63.69902232 70.9796939 -59.55126212 66.41552893 -55.375 61.875 C-52.37819989 58.61609506 -49.40085453 55.34500451 -46.5 52 C-43.13677362 48.12182987 -39.66664329 44.34472189 -36.19189453 40.56689453 C-31.75777273 35.74416089 -27.37391589 30.87738822 -23 26 C-14.96617112 17.04141383 -14.96617112 17.04141383 -11.09375 12.84375 C-10.60052246 12.30862793 -10.10729492 11.77350586 -9.59912109 11.22216797 C-8.64018281 10.18318582 -7.67965337 9.14566923 -6.71728516 8.10986328 C-4.78999017 6.02178409 -2.96781618 3.95535793 -1.3046875 1.6484375 C-0.65886719 0.83246094 -0.65886719 0.83246094 0 0 Z M-232 520 C-232.17015625 521.01271973 -232.3403125 522.02543945 -232.515625 523.06884766 C-254.65718998 654.3234303 -254.65718998 654.3234303 -293 692 C-293.73734375 692.73605469 -294.4746875 693.47210937 -295.234375 694.23046875 C-336.4742427 733.06726146 -404.81732174 739.89774919 -458 749 C-458 749.66 -458 750.32 -458 751 C-456.84105225 751.1952124 -455.68210449 751.3904248 -454.48803711 751.59155273 C-329.57022542 772.74221987 -329.57022542 772.74221987 -290 811 C-288.91138672 812.04994141 -288.91138672 812.04994141 -287.80078125 813.12109375 C-247.72440271 854.6364805 -240.49978144 925.47837561 -232 980 C-231.67 980 -231.34 980 -231 980 C-230.8047876 978.81599609 -230.6095752 977.63199219 -230.40844727 976.41210938 C-206.64541845 833.02672883 -206.64541845 833.02672883 -157.4206543 797.25 C-113.87791774 767.01479002 -56.2725934 759.33202617 -5 751 C-5 750.34 -5 749.68 -5 749 C-5.54202057 748.90723282 -6.08404114 748.81446564 -6.64248657 748.71888733 C-149.10464879 724.27542244 -149.10464879 724.27542244 -183 677.4375 C-214.72151291 632.07226004 -222.12467415 573.3518382 -231 520 C-231.33 520 -231.66 520 -232 520 Z " fill="#FFFFFF" transform="translate(676,0)"/>
</svg>
