<?xml version="1.0" encoding="UTF-8"?>
<svg version="1.1" xmlns="http://www.w3.org/2000/svg" width="4500" height="438">
<path d="M0 0 C121.4645796 -0.0806627 121.4645796 -0.0806627 172.31054688 -0.09765625 C183.20672468 -0.10131667 194.10290244 -0.10507063 204.99908013 -0.10905199 C206.47679899 -0.10959168 207.95451786 -0.11012842 209.43223672 -0.11066218 C232.92995152 -0.119174 256.42765659 -0.13416504 279.92536553 -0.15259444 C304.10443918 -0.1715235 328.28350747 -0.18378562 352.4625884 -0.18782998 C355.88899365 -0.18840617 359.31539889 -0.18905744 362.74180412 -0.18975449 C363.75320983 -0.18995676 363.75320983 -0.18995676 364.78504798 -0.19016311 C374.91055969 -0.19236837 385.03605644 -0.20031311 395.16156197 -0.21146011 C406.71387466 -0.2241313 418.2661655 -0.22992131 429.81848521 -0.22700275 C435.70169383 -0.22573182 441.58485399 -0.22756911 447.46805382 -0.23841095 C572.04274727 -0.45611172 572.04274727 -0.45611172 614.55859375 39.3984375 C632.04970121 57.6473919 638.50216704 82.13046891 638.20703125 106.921875 C636.97550164 137.29456855 625.86861245 165.20782389 603.6875 186.3125 C588.65907672 199.34713817 570.60923245 207.70287242 551 211 C551 211.33 551 211.66 551 212 C552.23234375 212.30292969 553.4646875 212.60585937 554.734375 212.91796875 C574.33075054 217.83392528 591.11046396 225.26965006 607 238 C607.67933594 238.53625 608.35867188 239.0725 609.05859375 239.625 C628.78298189 255.79109094 640.63201877 281.30856993 643.59857178 306.2583313 C644.6191783 316.65584579 644.24084359 327.18776328 644.1953125 337.62109375 C644.19236571 339.88936261 644.19032919 342.15763283 644.18920898 344.42590332 C644.17879538 352.76312318 644.15087304 361.10031378 644.125 369.4375 C644.08375 388.103125 644.0425 406.76875 644 426 C571.4 426 498.8 426 424 426 C423.67 397.95 423.34 369.9 423 341 C420.08956534 328.1906272 420.08956534 328.1906272 415.1875 316.5 C414.83768066 315.83476318 414.48786133 315.16952637 414.12744141 314.48413086 C407.18684842 301.66842821 396.19704509 293.94040204 382.625 289.0625 C369.90079572 285.34135029 356.97372019 284.70294523 343.78125 284.68115234 C342.34047912 284.67181929 340.89971348 284.66164583 339.45895386 284.65071106 C335.60466334 284.62377671 331.75040855 284.60837238 327.8960495 284.59528303 C323.84683706 284.57948952 319.797696 284.55275249 315.74853516 284.5272522 C308.10632947 284.48074805 300.46410991 284.44386814 292.82183647 284.41057932 C282.47684371 284.36494943 272.13194007 284.30418173 261.78702164 284.24433136 C245.52472611 284.15063932 229.26240342 284.07693866 213 284 C213 330.86 213 377.72 213 426 C142.71 426 72.42 426 0 426 C0 285.42 0 144.84 0 0 Z M213 117 C213 133.83 213 150.66 213 168 C237.74787463 168.09033212 262.49561556 168.16400063 287.24361324 168.20724869 C298.73481592 168.22786422 310.22590881 168.25596566 321.71704102 168.30175781 C331.7339978 168.34165631 341.75087507 168.36744015 351.76790911 168.37635398 C357.07070897 168.38156358 362.37328135 168.39378728 367.67600822 168.42292023 C372.67054166 168.4501368 377.66475461 168.45843233 382.65935516 168.45243073 C384.48907019 168.45352817 386.3187963 168.46144474 388.14844704 168.4768219 C399.02865928 168.56375301 406.97648774 167.93845032 416.25 161.875 C421.71422008 156.16240628 424.28807854 150.43637225 424.625 142.5 C424.27312482 134.42589108 421.60136626 128.06669285 415.625 122.5625 C409.94857608 117.8787512 404.06616885 116.55268948 396.86915588 116.63923645 C396.07913286 116.63667318 395.28910983 116.6341099 394.47514671 116.63146895 C391.84332706 116.62655045 389.21208854 116.64299168 386.58032227 116.65942383 C384.68768833 116.66027052 382.79505341 116.65979414 380.90242004 116.65809631 C375.77481223 116.65723658 370.64741551 116.67485892 365.51985669 116.69581819 C360.15736798 116.71458855 354.79487428 116.71633572 349.43235779 116.71989441 C339.28232808 116.7292138 329.13239545 116.75382621 318.98240846 116.78394288 C307.42504319 116.81749013 295.86767324 116.83397373 284.31027138 116.84902918 C260.54011472 116.88037583 236.77009112 116.93538665 213 117 Z " fill="#F96700" transform="translate(3057,6)"/>
<path d="M0 0 C1.25296875 1.09054688 1.25296875 1.09054688 2.53125 2.203125 C5.0568971 4.43255423 7.53526888 6.70349656 10 9 C11.21816406 10.11955078 11.21816406 10.11955078 12.4609375 11.26171875 C34.66749553 32.45251939 47.26730781 61.25131285 53 91 C53.36931641 92.91039062 53.36931641 92.91039062 53.74609375 94.859375 C55.15460358 103.91269338 55.08311469 112.88808124 55.04296875 122.03125 C55.03951338 123.38964766 55.03637772 124.74804616 55.03356934 126.10644531 C55.02551503 129.40431896 55.01423685 132.70214822 55 136 C25.57252346 136.06855823 -3.85494929 136.12159103 -33.28248904 136.15319599 C-36.76311457 136.15694774 -40.24373994 136.16083074 -43.72436523 136.16479492 C-44.41724382 136.16558185 -45.11012241 136.16636878 -45.82399731 136.16717956 C-57.01714564 136.18020449 -68.21024737 136.20384212 -79.40336812 136.23145839 C-90.90357639 136.25959395 -102.40375201 136.27596912 -113.90399402 136.28226548 C-120.3571755 136.28616638 -126.81025154 136.29529411 -133.26339912 136.31719017 C-139.34625456 136.33766118 -145.42896184 136.34381241 -151.51184845 136.33932304 C-153.7357228 136.34014351 -155.95960248 136.34604547 -158.18344688 136.35761642 C-184.64088038 136.48844213 -206.96065176 131.50249597 -227 113 C-249.25083741 89.91624354 -254.61429628 52.95364496 -259.79589844 22.67529297 C-260.01487793 21.3974292 -260.01487793 21.3974292 -260.23828125 20.09375 C-260.36243408 19.34802734 -260.48658691 18.60230469 -260.61450195 17.83398438 C-260.93697625 15.91466047 -260.93697625 15.91466047 -262 14 C-262.18062988 14.9701001 -262.36125977 15.9402002 -262.54736328 16.93969727 C-276.48577748 91.49887482 -276.48577748 91.49887482 -296 113 C-296.75023437 113.84304687 -297.50046875 114.68609375 -298.2734375 115.5546875 C-316.49399125 134.95456511 -343.28408345 141.69071273 -368.375 147.25 C-369.15408722 147.42271423 -369.93317444 147.59542847 -370.73587036 147.77337646 C-395.17967891 153.15805293 -395.17967891 153.15805293 -404 153 C-404 153.66 -404 154.32 -404 155 C-403.32445068 155.03520752 -402.64890137 155.07041504 -401.95288086 155.10668945 C-392.98317974 155.70177519 -384.33610031 157.33714757 -375.5625 159.1875 C-374.81599182 159.343396 -374.06948364 159.49929199 -373.300354 159.65991211 C-340.42032009 166.55132122 -308.7329022 175.85365139 -288.1640625 204.5625 C-271.65768504 230.85320076 -267.57739286 264.0457683 -262 294 C-260.76060545 289.15898548 -259.62951451 284.34220293 -258.703125 279.4296875 C-244.93038725 207.68399629 -244.93038725 207.68399629 -218.6875 187.625 C-203.25277837 177.23287209 -186.87860293 171.81872128 -168.31263733 171.87974548 C-167.35518866 171.87889106 -166.39773998 171.87803663 -165.41127771 171.87715632 C-162.21304938 171.87551329 -159.01487386 171.88100359 -155.81665039 171.88647461 C-153.52008058 171.88675676 -151.22351068 171.8865982 -148.92694092 171.8860321 C-142.69820733 171.88574522 -136.46949301 171.89162437 -130.2407639 171.89860606 C-123.72914938 171.90485772 -117.21753442 171.90544484 -110.70591736 171.90663147 C-99.77846941 171.90938633 -88.85102857 171.91563236 -77.92358398 171.92456055 C-66.67032913 171.93374535 -55.4170762 171.94082096 -44.16381836 171.94506836 C-43.122622 171.94546244 -43.122622 171.94546244 -42.06039137 171.94586449 C-38.57799722 171.94716957 -35.09560306 171.94843327 -31.61320889 171.94967639 C-2.74213459 171.96003615 26.12893254 171.97771778 55 172 C55.02821943 175.91946147 55.04841737 179.838882 55.0617981 183.75842285 C55.07010741 185.73252446 55.08441629 187.70659793 55.09887695 189.68066406 C55.20078871 225.41772052 44.085225 262.03640013 20 289 C19.23558594 289.87269531 18.47117187 290.74539063 17.68359375 291.64453125 C-33.58487248 349.50589669 -117.63203454 364.72089586 -191.125 370.6875 C-191.86441833 370.74852905 -192.60383667 370.80955811 -193.36566162 370.87243652 C-220.00959777 373.03177162 -246.72350032 373.20781806 -273.4375 373.1875 C-274.22708351 373.18723312 -275.01666702 373.18696625 -275.83017731 373.18669128 C-349.3355336 373.15557122 -427.18814792 367.79183781 -494 334 C-494.87672363 333.56300781 -495.75344727 333.12601562 -496.65673828 332.67578125 C-507.20584253 327.39290527 -517.44184964 321.94884508 -527 315 C-527.95519531 314.31679688 -528.91039062 313.63359375 -529.89453125 312.9296875 C-546.36566511 300.88395658 -560.86206432 287.43443475 -573 271 C-573.42958008 270.42008301 -573.85916016 269.84016602 -574.30175781 269.24267578 C-598.33127151 236.30614834 -605.44393464 196.72055401 -605.26074219 156.77050781 C-605.25000166 154.00042866 -605.26073528 151.2309976 -605.2734375 148.4609375 C-605.31551714 96.90627135 -590.21445596 51.5547128 -553.6875 14.375 C-500.58346235 -38.34428268 -419.28589221 -56.96946387 -347 -63 C-345.81470703 -63.10296387 -344.62941406 -63.20592773 -343.40820312 -63.31201172 C-258.68852929 -70.26218714 -164.89099516 -68.74774723 0 0 Z " fill="#F57B00" transform="translate(2343,65)"/>
<path d="M0 0 C1.54868937 0.00056958 1.54868937 0.00056958 3.12866539 0.00115067 C4.9081837 -0.00183591 4.9081837 -0.00183591 6.72365189 -0.00488281 C8.05699509 -0.00202923 9.3903381 0.00091638 10.72368091 0.00394398 C12.12697629 0.0035084 13.53027159 0.00263374 14.93356645 0.00135481 C18.80785249 -0.00089278 22.68211114 0.00313473 26.55639368 0.00813287 C30.72751256 0.01243342 34.89862978 0.01099123 39.06975025 0.0102306 C46.30252238 0.00970511 53.53528551 0.01285449 60.76805538 0.01846844 C71.22555045 0.0265801 81.68304116 0.02919832 92.14053904 0.03045643 C109.10530279 0.03264748 126.07006174 0.03930899 143.03482288 0.04875904 C159.51887212 0.0579318 176.00292005 0.0650133 192.48697132 0.06926686 C193.50228709 0.06952958 194.51760286 0.0697923 195.56368578 0.07006299 C200.65699937 0.07136798 205.75031296 0.0726317 210.84362656 0.07387489 C253.12765821 0.08424914 295.41168464 0.10186889 337.69571155 0.1241985 C344.13161628 12.2542942 350.42914938 24.44286429 356.56695789 36.72624928 C357.40863504 38.40701027 358.25048113 40.08768668 359.09247857 41.76828724 C361.37477327 46.32491898 363.65464184 50.88276063 365.93405169 55.44083601 C368.404207 60.37927662 370.87663602 65.3165788 373.34872669 70.25405079 C378.73445666 81.01201613 384.11722726 91.77146039 389.4993276 102.53124195 C392.8608767 109.25156764 396.22301214 115.97159987 399.58524936 122.69158131 C408.90145607 141.31182318 418.21693207 159.93243023 427.52961391 178.55443531 C428.12972119 179.75442824 428.72982853 180.95442113 429.32993593 182.154414 C429.93140922 183.35713993 430.53288244 184.5598659 431.1343556 185.7625919 C432.34084113 188.17512042 433.5473285 190.58764803 434.75381702 193.00017506 C435.05294638 193.59832439 435.35207574 194.19647372 435.66026963 194.81274879 C445.38654777 214.2616644 455.11775453 233.70810829 464.8518747 253.15310004 C475.15839592 273.7415718 485.46058226 294.33220757 495.75775796 314.92535549 C501.36616072 326.14124321 506.97650473 337.35615056 512.59178776 348.56859547 C517.36474551 358.09916088 522.13363846 367.63174592 526.89714135 377.16704077 C529.32854192 382.03376391 531.76190942 386.89947783 534.20046085 391.76262242 C536.42941226 396.20788204 538.65288157 400.65583732 540.87188874 405.10606891 C541.6783656 406.7209961 542.48690109 408.33489709 543.29762472 409.94769651 C544.39358711 412.12866137 545.48219567 414.31313911 546.56893581 416.49871022 C546.89015512 417.13355363 547.21137442 417.76839705 547.54232764 418.42247814 C548.9189507 421.20929275 549.69571155 422.96755421 549.69571155 426.1241985 C472.47571155 426.1241985 395.25571155 426.1241985 315.69571155 426.1241985 C283.69571155 362.1241985 283.69571155 362.1241985 283.69571155 359.1241985 C207.46571155 359.4541985 131.23571155 359.7841985 52.69571155 360.1241985 C37.37008442 390.58562145 37.37008442 390.58562145 22.61514515 421.30705982 C21.69571155 423.1241985 21.69571155 423.1241985 19.69571155 426.1241985 C16.58866055 426.41824538 13.68105683 426.51499728 10.5716576 426.48496205 C9.6143975 426.48752532 8.65713739 426.4900886 7.67086941 426.49272954 C4.44314229 426.4976956 1.21587649 426.481128 -2.01180798 426.46477467 C-4.31749227 426.46392901 -6.62317738 426.46440234 -8.9288612 426.46610218 C-15.20547225 426.46696594 -21.48191269 426.44927875 -27.75848395 426.42838031 C-34.31149365 426.4096767 -40.8645069 426.40786807 -47.41753918 426.40430409 C-58.42197412 426.39652713 -69.42634902 426.37726532 -80.43075329 426.35051686 C-91.76668759 426.32299115 -103.10260484 426.3017503 -114.43856579 426.28899342 C-115.13699731 426.28820525 -115.83542883 426.28741708 -116.55502494 426.28660502 C-120.05875623 426.28268999 -123.56248765 426.27889884 -127.06621915 426.27516931 C-156.14561648 426.24405549 -185.22495162 426.19098149 -214.30428845 426.1241985 C-213.67637579 421.64314602 -211.92398402 417.94572695 -209.9043861 413.95245701 C-209.54897338 413.23787044 -209.19356066 412.52328387 -208.82737786 411.78704315 C-207.63005379 409.38342254 -206.42419063 406.9841893 -205.21835095 404.58483082 C-204.35148105 402.84906742 -203.48513718 401.11304123 -202.61927563 399.37677461 C-200.23453546 394.59862677 -197.84230253 389.82426405 -195.44885403 385.05047375 C-192.87054553 379.90473387 -190.29914482 374.75554375 -187.72689587 369.60677296 C-182.68568056 359.51870223 -177.6380817 349.43383843 -172.58837372 339.35001662 C-166.71332196 327.61742485 -160.84469732 315.88162249 -154.97638661 304.14565799 C-144.50981274 283.21419919 -134.03759525 262.28556914 -123.56210095 241.3585735 C-113.3863738 221.03042088 -103.21430263 200.70044462 -93.04647595 180.36833912 C-92.73313879 179.74177633 -92.41980164 179.11521354 -92.09696943 178.469664 C-90.8337467 175.94366739 -89.57052672 173.41766941 -88.30730689 170.89167135 C-87.67782508 169.63292812 -87.04834291 168.37418507 -86.41886038 167.11544221 C-85.79094817 165.85983916 -85.163037 164.60423558 -84.53512686 163.34863149 C-74.54598366 143.37385696 -64.55365664 123.40067522 -54.56078964 103.42776339 C-51.04690047 96.40442666 -47.53341372 89.38088879 -44.02020317 82.35721257 C-38.44947525 71.22018099 -32.87742023 60.08381558 -27.30262047 48.94882157 C-24.75371529 43.85763704 -22.20544132 38.76613922 -19.65887219 33.67378575 C-17.33152259 29.01986937 -15.00234202 24.36687438 -12.67163807 19.71463701 C-11.82506386 18.02401154 -10.97917359 16.33304339 -10.13400608 14.64171425 C-8.99256398 12.35774608 -7.84870957 10.07500298 -6.70419079 7.79257542 C-6.37019111 7.12280658 -6.03619143 6.45303775 -5.69207054 5.76297289 C-2.87401244 0.15490596 -2.87401244 0.15490596 0 0 Z M167.69571155 124.1241985 C156.21202102 145.54569814 145.33183906 167.30160926 134.94278187 189.27410084 C130.06740871 199.5402647 124.94260343 209.6825052 119.8246178 219.82927662 C119.48452183 220.50523884 119.14442585 221.18120106 118.79402393 221.87764698 C118.14921888 223.1590266 117.50272774 224.43955949 116.85435718 225.71913868 C115.33781006 228.29802955 115.33781006 228.29802955 114.69571155 231.1241985 C149.34571155 231.1241985 183.99571155 231.1241985 219.69571155 231.1241985 C217.45846929 224.13741706 217.45846929 224.13741706 214.60196155 217.61199147 C214.2168642 216.84521076 213.83176685 216.07843006 213.43499988 215.28841358 C213.02603473 214.48914448 212.61706959 213.68987538 212.19571155 212.866386 C211.76346271 212.00886738 211.33121387 211.15134876 210.88586658 210.26784474 C209.96745796 208.44705187 209.04641022 206.62758808 208.12289661 204.80937916 C205.72072503 200.07941363 203.33798536 195.33967235 200.95352405 190.600761 C200.48842426 189.67759083 200.02332447 188.75442066 199.54413074 187.80327564 C195.70111441 180.16456547 191.98070931 172.47543933 188.32803577 164.7438274 C184.82825149 157.35037428 181.18345689 150.03408133 177.48428577 142.73845631 C174.38733202 136.60594476 171.49684596 130.39718255 168.69571155 124.1241985 C168.36571155 124.1241985 168.03571155 124.1241985 167.69571155 124.1241985 Z " fill="#FB5D00" transform="translate(3950.3042884469032,5.875801503658295)"/>
<path d="M0 0 C172.26 0 344.52 0 522 0 C522 38.61 522 77.22 522 117 C420.03 117 318.06 117 213 117 C213 129.87 213 142.74 213 156 C314.97 156 416.94 156 522 156 C522 193.62 522 231.24 522 270 C420.03 270 318.06 270 213 270 C213 282.87 213 295.74 213 309 C314.97 309 416.94 309 522 309 C522 347.61 522 386.22 522 426 C349.74 426 177.48 426 0 426 C0 285.42 0 144.84 0 0 Z " fill="#F28400" transform="translate(1163,6)"/>
<path d="M0 0 C172.26 0 344.52 0 522 0 C522 38.61 522 77.22 522 117 C420.03 117 318.06 117 213 117 C213 129.87 213 142.74 213 156 C314.97 156 416.94 156 522 156 C522 193.62 522 231.24 522 270 C420.03 270 318.06 270 213 270 C213 282.87 213 295.74 213 309 C314.97 309 416.94 309 522 309 C522 347.61 522 386.22 522 426 C349.74 426 177.48 426 0 426 C0 285.42 0 144.84 0 0 Z " fill="#F09300" transform="translate(0,6)"/>
<path d="M0 0 C184.47 0 368.94 0 559 0 C559 42.57 559 85.14 559 129 C501.25 129 443.5 129 384 129 C384 227.01 384 325.02 384 426 C313.71 426 243.42 426 171 426 C171 327.99 171 229.98 171 129 C114.57 129 58.14 129 0 129 C0 86.43 0 43.86 0 0 Z " fill="#F77200" transform="translate(2439,6)"/>
<path d="M0 0 C70.29 0 140.58 0 213 0 C213 95.7 213 191.4 213 290 C314.97 290 416.94 290 522 290 C522 334.88 522 379.76 522 426 C349.74 426 177.48 426 0 426 C0 285.42 0 144.84 0 0 Z " fill="#F08C00" transform="translate(581,6)"/>
</svg>
